<svg width="26" height="26" viewBox="0 0 26 26" fill="none" xmlns="http://www.w3.org/2000/svg">
<path d="M25.5544 2.08597C25.5544 1.35737 24.8818 0.684814 24.1532 0.684814H1.79079C1.06219 0.684814 0.445679 1.35737 0.445679 2.08597V24.4484C0.445679 25.177 1.06219 25.7935 1.79079 25.7935H13.8407V16.0975H10.534V12.2864H13.8407V9.48407C13.8407 6.28943 15.8023 4.49596 18.7167 4.49596C20.0618 4.49596 21.2949 4.60805 21.6311 4.66409V8.02687H19.6135C18.0442 8.02687 17.764 8.81151 17.764 9.87639V12.2864H21.519L21.0146 16.0975H17.764V25.7935H24.1532C24.8818 25.7935 25.5544 25.177 25.5544 24.4484V2.08597Z" fill="#0699A6"/>
</svg>
