<svg width="26" height="26" viewBox="0 0 26 26" fill="none" xmlns="http://www.w3.org/2000/svg">
<path d="M12.587 6.7939C9.00005 6.7939 6.1417 9.7083 6.1417 13.2392C6.1417 16.8262 9.00005 19.6845 12.587 19.6845C16.1179 19.6845 19.0323 16.8262 19.0323 13.2392C19.0323 9.7083 16.1179 6.7939 12.587 6.7939ZM12.587 17.4427C10.2891 17.4427 8.38354 15.5932 8.38354 13.2392C8.38354 10.9413 10.2331 9.0918 12.587 9.0918C14.8849 9.0918 16.7344 10.9413 16.7344 13.2392C16.7344 15.5932 14.8849 17.4427 12.587 17.4427ZM20.7698 6.56972C20.7698 5.72903 20.0972 5.05647 19.2565 5.05647C18.4158 5.05647 17.7433 5.72903 17.7433 6.56972C17.7433 7.41041 18.4158 8.08297 19.2565 8.08297C20.0972 8.08297 20.7698 7.41041 20.7698 6.56972ZM25.0293 8.08297C24.9172 6.0653 24.4688 4.27182 23.0116 2.81462C21.5544 1.35742 19.7609 0.909052 17.7433 0.79696C15.6695 0.684868 9.44842 0.684868 7.37471 0.79696C5.35705 0.909052 3.61962 1.35742 2.10637 2.81462C0.64917 4.27182 0.2008 6.0653 0.088708 8.08297C-0.0233844 10.1567 -0.0233844 16.3778 0.088708 18.4515C0.2008 20.4692 0.64917 22.2066 2.10637 23.7199C3.61962 25.1771 5.35705 25.6254 7.37471 25.7375C9.44842 25.8496 15.6695 25.8496 17.7433 25.7375C19.7609 25.6254 21.5544 25.1771 23.0116 23.7199C24.4688 22.2066 24.9172 20.4692 25.0293 18.4515C25.1414 16.3778 25.1414 10.1567 25.0293 8.08297ZM22.339 20.6373C21.9467 21.7582 21.05 22.5989 19.9851 23.0473C18.3037 23.7199 14.3805 23.5517 12.587 23.5517C10.7375 23.5517 6.81425 23.7199 5.18891 23.0473C4.06799 22.5989 3.22729 21.7582 2.77893 20.6373C2.10637 19.012 2.27451 15.0887 2.27451 13.2392C2.27451 11.4457 2.10637 7.5225 2.77893 5.84112C3.22729 4.77624 4.06799 3.93555 5.18891 3.48718C6.81425 2.81462 10.7375 2.98276 12.587 2.98276C14.3805 2.98276 18.3037 2.81462 19.9851 3.48718C21.05 3.8795 21.8907 4.77624 22.339 5.84112C23.0116 7.5225 22.8435 11.4457 22.8435 13.2392C22.8435 15.0887 23.0116 19.012 22.339 20.6373Z" fill="#0699A6"/>
</svg>
