<svg width="26" height="26" viewBox="0 0 26 26" fill="none" xmlns="http://www.w3.org/2000/svg">
<path d="M23.3479 0.684814H1.77009C0.8173 0.684814 0.0326538 1.52551 0.0326538 2.53434V24C0.0326538 25.0089 0.8173 25.7935 1.77009 25.7935H23.3479C24.3007 25.7935 25.1413 25.0089 25.1413 24V2.53434C25.1413 1.52551 24.3007 0.684814 23.3479 0.684814ZM7.59889 22.2066H3.89984V10.2687H7.59889V22.2066ZM5.74937 8.58733C4.51635 8.58733 3.56356 7.63454 3.56356 6.45757C3.56356 5.2806 4.51635 4.27177 5.74937 4.27177C6.92634 4.27177 7.87912 5.2806 7.87912 6.45757C7.87912 7.63454 6.92634 8.58733 5.74937 8.58733ZM21.5544 22.2066H17.7993V16.3777C17.7993 15.0326 17.7993 13.2392 15.8937 13.2392C13.9321 13.2392 13.6519 14.7524 13.6519 16.3217V22.2066H9.95283V10.2687H13.4837V11.8941H13.5398C14.0442 10.9413 15.2772 9.93244 17.0707 9.93244C20.8258 9.93244 21.5544 12.4545 21.5544 15.6491V22.2066Z" fill="#0699A6"/>
</svg>
