<svg width="30" height="24" viewBox="0 0 30 24" fill="none" xmlns="http://www.w3.org/2000/svg">
<path d="M26.4924 6.41033C27.6133 5.56964 28.6222 4.56081 29.4068 3.38384C28.398 3.83221 27.221 4.16848 26.044 4.28058C27.2771 3.55198 28.1738 2.43105 28.6222 1.0299C27.5012 1.70245 26.2122 2.20687 24.9231 2.4871C23.8022 1.31013 22.2889 0.637573 20.6076 0.637573C17.3569 0.637573 14.7227 3.27174 14.7227 6.52242C14.7227 6.97079 14.7788 7.41916 14.8909 7.86753C10.0148 7.5873 5.64323 5.23336 2.72883 1.70245C2.22441 2.54314 1.94418 3.55198 1.94418 4.6729C1.94418 6.69056 2.95301 8.48404 4.57835 9.54892C3.62557 9.49287 2.67278 9.26869 1.88814 8.82032V8.87636C1.88814 11.7347 3.9058 14.0887 6.59602 14.6491C6.14765 14.7612 5.58718 14.8733 5.08277 14.8733C4.69045 14.8733 4.35417 14.8173 3.96185 14.7612C4.69045 17.1152 6.87625 18.7965 9.45437 18.8526C7.43671 20.4219 4.91463 21.3747 2.16837 21.3747C1.66395 21.3747 1.21558 21.3186 0.767212 21.2626C3.34534 22.944 6.42788 23.8967 9.79065 23.8967C20.6076 23.8967 26.4924 14.9854 26.4924 7.19498C26.4924 6.91475 26.4924 6.69056 26.4924 6.41033Z" fill="#0699A6"/>
</svg>
